<?xml version="1.0" encoding="iso-8859-1"?>
<!-- Generator: Adobe Illustrator 19.0.0, SVG Export Plug-In . SVG Version: 6.00 Build 0)  -->
<svg version="1.1" id="Capa_1" xmlns="http://www.w3.org/2000/svg" xmlns:xlink="http://www.w3.org/1999/xlink" x="0px" y="0px"
	 viewBox="0 0 512 512" style="enable-background:new 0 0 512 512;" xml:space="preserve">
<path style="fill:#9A4C00;" d="M163.076,85c-46.869,0-85-38.131-85-85h30c0,30.327,24.673,55,55,55V85z"/>
<rect x="191.08" y="15" style="fill:#FF4F19;" width="30" height="35"/>
<rect x="251.08" y="15" style="fill:#FF3200;" width="30" height="35"/>
<g>
	<polygon style="fill:#9A4C00;" points="96.687,190.762 59.177,147 0.076,147 0.076,117 72.975,117 119.465,171.238 	"/>
	<polygon style="fill:#9A4C00;" points="87.553,271.343 49.401,245 0.076,245 0.076,215 58.751,215 104.599,246.657 	"/>
	<polygon style="fill:#9A4C00;" points="72.975,437 0.076,437 0.076,407 59.177,407 96.687,363.238 119.465,382.762 	"/>
	<polygon style="fill:#9A4C00;" points="57.311,348 0.076,348 0.076,318 50.841,318 89.894,300.333 102.259,327.667 	"/>
</g>
<g>
	<polygon style="fill:#703700;" points="375.465,190.762 352.688,171.238 399.177,117 472.076,117 472.076,147 412.975,147 	"/>
	<polygon style="fill:#703700;" points="384.599,271.343 367.553,246.657 413.401,215 472.076,215 472.076,245 422.751,245 	"/>
	<polygon style="fill:#703700;" points="472.076,437 399.177,437 352.688,382.762 375.465,363.238 412.975,407 472.076,407 	"/>
	<polygon style="fill:#703700;" points="472.076,348 414.841,348 369.894,327.667 382.259,300.333 421.311,318 472.076,318 	"/>
</g>
<path style="fill:#FF4F19;" d="M342.29,141H129.863l-48.787,48.787V306c0,78.279,62.354,142.259,140,144.904V451h5h20h5v-0.096
	c77.646-2.646,140-66.626,140-144.904V189.787L342.29,141z"/>
<path style="fill:#FF3200;" d="M342.29,141H236.076v310h10h5v-0.096c77.646-2.646,140-66.626,140-144.904V189.787L342.29,141z"/>
<path style="fill:#A81300;" d="M266.076,351v30c41.355,0,75-33.645,75-75h-30C311.076,330.813,290.889,351,266.076,351z"/>
<path style="fill:#FFDB2D;" d="M511.924,512H140.229l185.848-325.233L511.924,512z"/>
<polygon style="fill:#FF9A00;" points="326.076,186.767 326.076,512 511.924,512 "/>
<g>
	<rect x="311.08" y="431" style="fill:#9A4C00;" width="30" height="30"/>
	<rect x="311.08" y="311" style="fill:#9A4C00;" width="30" height="90"/>
</g>
<g>
	<rect x="326.08" y="431" style="fill:#703700;" width="15" height="30"/>
	<rect x="326.08" y="311" style="fill:#703700;" width="15" height="90"/>
</g>
<path style="fill:#FFDB2D;" d="M351.076,171h-230V93.787L179.863,35H292.29l58.787,58.787V171H351.076z"/>
<path style="fill:#703700;" d="M309.076,85V55c30.327,0,55-24.673,55-55h30C394.076,46.869,355.945,85,309.076,85z"/>
<polygon style="fill:#FF9A00;" points="351.076,93.787 292.29,35 236.076,35 236.076,171 351.076,171 "/>
<g>
</g>
<g>
</g>
<g>
</g>
<g>
</g>
<g>
</g>
<g>
</g>
<g>
</g>
<g>
</g>
<g>
</g>
<g>
</g>
<g>
</g>
<g>
</g>
<g>
</g>
<g>
</g>
<g>
</g>
</svg>
